<svg xmlns="http://www.w3.org/2000/svg" xmlns:xlink="http://www.w3.org/1999/xlink" width="100%" height="100%" viewBox="0 0 190 288" preserveAspectRatio="xMidYMid meet" ><g style="fill:rgb(100,92,171);fill-rule:evenodd;stroke:rgb(100,92,171);stroke-width:0.1;" id="l1"><path d="M0,0h190v288h-190z"/><path d="M30,28h1l1,1l1,3c0,3,1,3,2,5v3h-9v-1l1-3l1-3l1-2h1zm40,16h1v6h-1zm31,0h1v7h-1zm31,0h1v7h-1zm-30,8h1v4h-1zm31,1h1v5h-1zm-69,36h1v3h-1zm-39,22h7l3,1l3,3l1,4v6l-1,5l-3,3h-10zm125,5h1l4,4v3l-1,1h-1v2h-2l-1-9z"/><path d="M55,126h1v8h-1zm80,4h1v2h-1zm-18,2h1v3h-1zm-76,5h1v4h-1zm62,1h1v2h-1zm-8,1h3v3l-1,1h-1l-1-1zm32,0h2v3l-1,1h-1l-1-2v-1zm-38,1h1v2l-1,1h-1v-1zm-61,14h6l2,1l1,1l2,2l1,2v11l-2,4c-2,0-2,1-3,2h-8l-5-5v-12l2-4zm82,15h1v4h-1zm31,0h1v4h-1zm-62,1h1v3h-1zm-9,37h1v6h-1z"/><path d="M101,207h1v6h-1zm-30,9h1v5h-1zm31,1h1v2h-1zm-38,35h1v3h-1z"/></g><g style="fill:rgb(6,6,8);fill-rule:evenodd;stroke:rgb(6,6,8);stroke-width:0.1;" id="l2"><path d="M62,20h4l2,1v5c-1,5,0,5,1,6v1h3l1,1l1,2l1,10v10l-1,6l-1,2c-2,0-2,6-3,15l-1,7h-1c0,7,1,7,2,9v1h-12v-1l1-2h1c0-14-1-14-2-23c0-6-2-6-3-7l-1-6v-8l1-10l1-5l1-1c3,0,3-1,4-2h1c0-5-1-5-2-7v-2zm2,67l1,5zm6-37l1-6z"/><path d="M93,20h4l2,1v5c-1,5,0,5,1,6v1h3l1,1l1,3l1,10v8l-1,7l-1,2h-2v5h-1v9l-1,8h-1l1,7v3h-11v-2l1-1h1c0-13-1-13-2-22c0-7-2-7-3-8l-1-6v-9l1-10l1-4l1-1c3,0,3-1,4-2h1c0-5-1-5-2-6v-3zm9,38l1-6zm-1-7l1-7z"/><path d="M124,20h4l2,2v4l-1,1h-1v2h1c0,2,1,2,2,3v1h3l1,1l1,4l1,9v4l-1,9l-1,4h-2v4h-1v9l-1,8h-1l1,8v3h-11v-2l1-1h1v-11h-1l-1-11c0-7-2-7-3-8l-1-5v-10l1-11l1-3l1-1c3,0,3-1,4-2h1c0-4-1-4-2-6v-4zm9,38l1-5zm-1-7l1-7z"/><path d="M79,101h2l2,1l1,2v1l-1,3h-1l1,3c0,2,1,2,5,4l1,1v10h-5l-1-1v1c-1,6,1,6,1,2l1-1h1v7l1-2h1v-4l1-1h1v11h-1v-1l-2,1h-1c0,5,1,5,3,6v1l-1,1c-2,0-2,10-3,18h-1l1,12v2h-3l-2-1v-1l-1,1l-2,1h-3v-2l1-2h1l-1-8v-12h-1c0-8-2-8-3-9v-2h1c0,2,1,1,5,1c0-6-2-6-2-2h-2v-6l-1,2h-1v4h-1v-12h2v2h2v-2h1l1,1v1c5,0,5-9,3-9v3h-4v2h-2l-1-1l-1-3v-7l1-2l2-1h3v-3c1-1,0-1-1-3v-5l1-1zm1,72v-3h-1v3z"/><path d="M110,101h2l2,1v6l-1,4h1c0,2,3,2,5,3l1,2v9h-1c-2-1-2,0-3,1h-1c0,4,1,4,2,5v3l1-3l2-1h1v9h-1v-2h-2l1,2l1,3v1l-1,2c-2,0-2,9-3,18h-1l1,12v2h-4l-1-1v-1l-1,1l-2,1h-3v-2l1-3h1l-1-4v-14h-1c0-8-1-8-3-10l-1-2v-17l1-9l1-2l4-2h1l-1-5v-5l1-1zm-4,43v-5h2v5h2v-5h-1l-1-1v-1l-1,1h-3l-1-2v4l-1,1h2v3zm4,29l1-4z"/><path d="M141,101h2l2,1v6l-1,4h1c0,2,3,2,5,3l1,2l1,9v1l-2,2h-2l-1-1l1,2v2l-1,1h-1c0,6,5,5,6,5v1l-1,5l-1,2c-2,0-2,8-4,26h-1l2,4v2h-4l-1-1v-1l-1,1l-3,1h-2v-2l1-3h1l-1-4c0-14-1-14-2-20c0-3-1-3-2-4l-1-2v-17l1-9l1-2l4-2h1l-1-5v-5l1-1zm0,68l1,4zm-6-37l1-6z"/><path d="M46,102h6l1,2v2l-1,2h-1c0,3,1,3,2,5v1h2l2,1l1,1l1,7v17l-1,5l-1,1c-2,0-2,11-3,19h-1l1,11v2h-3l-2-1v-1l-1,1l-2,1h-3v-1l1-1h1v-2l1-2h1c0-12-1-12-2-15c0-2-1-2-2-3c0-8-2-8-3-9l-1-4v-4l4-4c1,0,1-3,2-7h1l-1-7v-5l1-2h1l-2-4v-5zm-4,35l-1,4zm14-3l-1-8zm-14,10h-1v1h1z"/><path d="M77,127h2v3l-1,1h-1l-1-1v-2zm27,0h2v1h-2zm13,0h2v1h-2zm1,2h3v1h-3zm-30,10h2v1l-1,2h-1zm25,0h2v3h-2zm-51,44h4l2,1v5c-1,5,0,5,1,6v1h3l1,1l1,3l1,9v10l-1,6l-1,2l-1,1c-1,0-1,6-3,22h-1c0,6,1,6,2,8v1l-1,1h-1l-2-1v-1l-4,1h-4v-1l1-2h1c0-14-1-14-2-23c0-6-2-6-3-7l-1-6v-8l1-9l1-6l4-2c2,0,2-6,1-6l-1-1v-2l1-2zm2,67l1,5zm7-29l1-7zm-1-8l1-6z"/><path d="M93,183h4l2,2v4c-2,0-1,1-1,6h2l3,1l1,1l1,3l1,10v8l-1,7l-1,2c-2,0-2,6-4,22h-1l1,7v4h-1l-2-1v-1l-4,1h-4v-1l1-2h1c0-13-1-13-2-22c0-7-2-7-3-8l-1-6v-9l1-10l1-4l1-1c3,0,3-1,4-2h1c0-5-1-5-2-6v-3zm9,38l1-6zm-1-8l1-6z"/><path d="M134,185h4l2,2v6l-1,2l-2,1h-1l1,7v4l-1,5h-1c0,6,2,6,3,7v1l1-1h2l1,2v2l-1,1c-3,0-3,2-2,2l1,1l1,2v3h1c0,2,1,2,2,3l1,2c0,4,1,4,3,8l1,3c0,2,1,2,3,4v1h2v1l4-1h2v1l-3,3l-2,1h-2v2h-3l-1-1v-3h-3l-3-6c0-2-1-2-2-3l-3-6c0-2-1-2-2-3c0-2-1-2-2-3c0-2-1-2-3-4v-1c-2,0-2,1-4,5l-1,2l-1,1h-1v2l-2,4l-1,1c-1,0-1,2-2,5l-2,4h-1l1,2v2h2l1,1v1h-9l-1-1v-3l1-4l1-2h1v-4l1-3l1-2l1-1h1v-2l1-1h1v-2c1,0,1-3,2-8h1v-7l2-4h1v-15l1-2l3-3c2,0,1-4,1-9l1-1zm4,38h-1v1h1z"/><path d="M77,261h2l1,3c0,2,1,1,2,1v-2h2v2l-2,1h-1l1,1v1h2v1l-1,1c-2,0-1,6-1,7h-2c0-4-2-4-2-3l-1,3h-1v-13c2,0,1-1,1-3zm10,6h2v1h-2zm5,0h1v3h-1zm3,0h1v3h-1zm3,0h1v3h-1zm5,0h2v1h-2zm17,0h2v2l-1,1h-1v-1h1l-1-1zm3,0h1v2h-1zm4,0h1v3h-1zm-18,1h1v2h-1z"/></g><g style="fill:rgb(246,148,32);fill-rule:evenodd;stroke:rgb(246,148,32);stroke-width:0.1;" id="l3"><path d="M27,19h7l1,1c0,3,1,3,2,5c0,3,1,3,2,5c0,3,1,3,2,5c0,3,1,3,2,5c0,3,1,3,2,5v8h-5l-1-2l-1-3c0-2-14-2-14-1l-1,2h-1v3l-1,1h-5v-6l1-3l1-2h1v-3l1-3l1-2h1v-3l1-2h1v-3l1-2h1v-3zm0,17v3l-1,1h9v-3h-1l-1-2l-2-6v-1l-1,3l-1,2h-1v3zm120-17h6v14h14v-14h6l1,1v33h-7v-15h-14v15h-6l-1-1v-32z"/><path d="M22,62h6v28h16v6h-22zm125,0h6v24h1c0,2,1,2,2,3v1h2v1h4v-1c2,0,2-1,3-2c1,0,1-2,2-26h6v27l-1,2l-4,4l-2,1h-12l-2-1l-4-4l-1-2z"/><path d="M18,106h18l3,1l5,5l1,2v16l-1,3l-4,4l-2,1l-3,1h-17zm7,27h10v-1l2-2h1v-3h1v-10h-1v-2h-1l-2-2v-1h-3l-7-1zm121-27h5l4,4c0,2,1,2,4,5v1c2,0,2-1,4-3h1v-2l5-5h5v5l-3,3h-1v2l-1,1l-3,3h-1c0,3,1,3,2,4c0,2,1,2,3,4l1,1c0,2,1,2,3,4v6h-5l-1-1c0-2-1-2-3-4c0-2-1-2-3-4l-1-2v-1l-2,1h-1v2l-2,2h-1v2l-2,2h-1v2l-1,1h-5v-6l2-2h1v-2l2-2l1-1h1v-2l1-1h1c0-3-1-3-6-8c0-2-1-2-3-4z"/><path d="M29,148h4l4,1l4,2l4,4l1,2l1,3v12l-2,4l-5,5l-2,1l-3,1h-8l-3-1l-2-1l-5-5l-2-4v-13l2-4l5-5l2-1zm-7,12v12h1v2h1l2,1l1,1v1h8v-1l1-1h2v-2l1-2h1v-11h-1v-2h-1l-2-2v-1h-2v-1h-6v1l-2,1h-2v2l-1,2zm129-11h7v28h15v5h-22z"/><path d="M17,192h7v24h1c0,2,1,2,2,3v1c7,0,7-1,9-2c1,0,1-4,2-26h6v26l-2,4l-2,2l-2,1l-3,1h-9l-4-2l-3-3l-1-2l-1-5zm132,0h23v6c-17,0-17,7-1,7v6c-15,0-15,1-16,8h1l16,1v6h-23z"/><path d="M25,235h11l3,1l4,4v5h-6c0-2-1-2-2-3v-1h-10v2h-1l1,2c0,2,2,2,12,4l4,2l3,3l1,2v6l-1,2l-4,4l-3,1h-12l-4-2l-3-3l-1-3v-3h7c0,3,1,3,2,4v1c10,0,10-1,11-2h1c0-4-1-4-2-5c0-1-3-1-9-2l-3-1l-2-1l-2-1l-1-1l-1-2v-8l4-4z"/><path d="M148,235h4l1,1l1,2c0,2,1,2,2,3l1,2c0,2,1,2,2,3l1,2v1l1-2l1-1h1v-2l1-2l1-1h1v-2l1-2l2-2h4v7l-1,1h-1v2l-1,2l-1,1h-1v2l-1,2l-1,1h-1v2h-1v13l-1,1h-6v-12l2-2h1c0-2-2-1-5-1c0-2-1-2-2-3l-1-2c0-2-1-2-2-3l-1-2c0-2-1-2-2-3v-5z"/></g><g style="fill:rgb(238,238,239);fill-rule:evenodd;stroke:rgb(238,238,239);stroke-width:0.1;" id="l4"><path d="M69,123h2l1,1c0,3,1,3,2,5v3h-2v-2h-4v2h-2v-3l1-2h1v-3zm10,0h2v9h-5l-1-1v-5l2-1h1l1,1zm-2,4v4l1-1h1v-3zm17-4h2v1h-2zm10,0h2v1c-1,1,0,1,1,2v6h-5v-3l1-1h3l-4-1v-1h2zm18,0h2v9h-2zm-37,2h6l1,1v6h-1l-1-4v-1l-1,1h-1v4h-1c0-4-1-4-2-5v1l-1,4h-1v-6zm28,0h1v4l-1,2l-1,1h-2l-1-2l-1-3v-1h2c0,2,1,2,2,3v-2z"/><path d="M117,125h2l2,1v3h-4l1,1v1l1-1h2v1l-1,1h-4l-1-1v-4zm0,3h2v-1h-2zm-23-2h2v6h-2zm3,0h4v1h-2v5h-2zm-7,9h2v9h-5l-1-1v-4l2-2h1l1,1zm0,4h-2v4l1-1h1zm-27-2h5l1,1l1,1v5h-2v-5h-2v5h-2v-5h-2v5h-2v-6zm19,0h1l2,2v5h-2c0-5-2-4-3-4v4h-1v-6zm14,0h1l2,1l1,1v3l-1,2h-5l-1-2v-3l1-1zm-1,5h1v1l1-1h1v-3h-3z"/><path d="M107,137h1l2,2v5h-2v-5h-2v5h-2v-6zm20,0h2l2,2v4l-1,1h-4l-1-1v-5zm-1,4h1v2l1-1h1v-3h-2v1zm-55-3h2v5h2v-5h2v6h-5l-1-1zm41,0h5v5l-1,1h-4l-1-1v-4zm3,5v-1l1-2h-1l-2-1v4zm3-5h2v3h2v-3h2v2l-2,4h-2l-1-1l-1-3z"/></g><g style="fill:rgb(102,90,132);fill-rule:evenodd;stroke:rgb(102,90,132);stroke-width:0.1;" id="l5"><path d="M61,20h1v1l-1,1h-1v-1zm31,0h1v1l-1,1h-1v-1zm0,6h1v2h-1zm62,12h10v1h-10zm-109,10h1v3h-1zm26,3h1v5h-1zm31,5h1v2h-1zm51,7h1v23h-1zm-52,6h1v2h-1zm-31,1h1v2h-1zm61,7h1v2h-1zm-31,1h1v2h-1zm-41,1h1v2h-1zm10,0h1v2h-1zm77,4h1v2h-1zm-78,3h1v2h-1zm31,0h1v2h-1zm-35,1h1v2h-1zm97,9h2v1h-2zm-47,8h1v3h-1zm35,1h2l1,1v1h-1l-2-1z"/><path d="M169,105h1v1l-1,1h-1v-1zm-117,1h1v2l-1,1h-1v-1zm6,14h1v3h-1zm31,2h1v3h-1zm31,1h1v3h-1zm-82,2h1v2h-1zm62,0h2v1h-2zm8,0h2v1h-2zm27,1h1v4h-1zm-76,3h1v4h-1zm58,0h1l1,1v1h-1l-1-1zm54,1h1l1,1v1h-1l-1-1zm-85,2h1v2h-1zm45,2h1v4h-1zm-28,2h1v2h-1zm-47,1h1v3h-1zm78,0h1v3h-1zm36,2h2v1h-2zm-112,1h1v3h-1zm57,0h1v2h-1zm-45,2h1v2h-1zm3,0h2v1h-2zm-31,4h1v2h-1zm-22,5h1v1l-1,1h-1v-1zm54,3h1v2h-1zm73,0h1v2h-1zm-42,1h1v2h-1zm11,0h1v2h-1z"/><path d="M85,156h1v2h-1zm-64,7h1v5h-1zm63,1h1v2h-1zm31,0h1v2h-1zm-62,1h1v2h-1zm53,4h1v3h-1zm31,2h1v2h-1zm-1,4h1v1l-1,2h-1v-2zm37,6h1v1l-1,1h-21v-1zm-81,2h1v1l-1,1h-1v-1zm0,6h1v2h-1zm63,9h1v7h-1zm-31,13h1v2h-1zm11,1h1v2h-1zm20,0h1v7h-1zm-84,2h1v2h-1zm31,1h1v2h-1zm3,3h1v2h-1zm-3,1h1v2h-1zm-79,5h1v2h-1zm78,9h1v2h-1z"/><path d="M100,241h1v2h-1zm-83,1h1v3h-1zm52,0h1v2h-1zm-33,1h1v2h-1zm63,6h1v2h-1zm-35,1h1v2h-1zm4,0h1v2h-1zm27,3h1v2h-1zm21,1h1v2h-1zm32,2h1v2h-1zm-90,3h2v1h-2zm21,1h1v3h-1zm36,0h5v1h-5zm-88,1h1v1l-1,1h-1v-1zm15,4h1v2h-2v-1zm40,0h2v1h-2zm36,2h1l1,2v1h-1v-1l-1,1h-1v-2zm7,0h2v1h-2zm-23,1h1v2h-1z"/></g><g style="fill:rgb(91,77,101);fill-rule:evenodd;stroke:rgb(91,77,101);stroke-width:0.1;" id="l6"><path d="M58,44h1v2h-1zm0,4h1v2h-1zm61,2h1v2h-1zm-62,1h1v2h-1zm31,0h1v2h-1zm48,0h1v4h-1zm-31,1h1v2h-1zm-34,4h1v2h-1zm64,4h1v2h-1zm-48,2h2v1h-2zm31,0h1v1l-1,1h-1v-1zm55,1h1v12h-1zm-41,5h1v2h-1zm41,9h1v4h-1zm-83,3h1v2h-1zm5,8h1v4h-1zm31,2h1v2h-1zm23,2h1l1,1v1h-1l-1-1zm-49,2h1v2l-1,1h-2v-1h2zm31,1h1v1l-1,1h-2v-1zm-64,1h2v1h-2zm-19,5h2v1h-2zm35,4h1v2h-1zm-42,4h1l1,1v1h-1l-1-1zm114,2h1l1,1v1h-1l-1-1zm-7,2h1v2h-1z"/><path d="M171,113h1v1l-1,1h-1v-1zm-88,12h1v1l-1,6h-1v-6zm19,2h2v1l-1,1h-1zm-29,1h2v2h-1l-1-1zm74,0h1l1,1v2h-1l-1-1zm-13,7h1v2h-1zm-47,2h1v1l-1,1h-1v-1zm15,3h2v1h-2zm-63,1h1v2h-1zm74,1h2v1h-2zm-40,4h1v2h-1zm31,1h1v2h-1zm32,8h1v2h-1zm-61,11h1v3h-1zm62,3h1v2h-1zm-89,1h1v3h-1zm97,2h1v2h-1zm-127,5h1l2,2v1h-1l-2-2zm79,12h2v1h-2zm-60,4h1v21h-1zm100,2h2v1l-2,1h-1v-1z"/><path d="M55,201h1v2h-1zm3,6h1v3h-1zm0,4h1v2h-1zm30,3h1v2h-1zm17,1h1v2h-1zm-15,28h1v2h-1zm5,8h1v2h-1zm24,7h1l1,1v1h-1l-1-1zm-29,9h1v3h-2v-1zm3,0h1l1,2v1h-1l-1-1zm12,0h1l1,1v2h-1v-2l-1,2h-1v-2zm8,0h1l1,2v1h-1v-1l-1,1h-1v-1zm-26,1h1v2h-1zm35,1h2v1h-2z"/></g><g style="fill:rgb(148,120,142);fill-rule:evenodd;stroke:rgb(148,120,142);stroke-width:0.1;" id="l7"><path d="M164,38h2v1h-2zm-136,25h1v27h-1zm118,0h1v20h-1zm27,12h1v2h-1zm0,6h1v4h-1zm-147,30h5v1h-5zm12,6h1v2h-1zm56,7h2v2h-2zm3,1h2v1h-2zm-28,1h2v3h-1l-1-1zm38,1h1v5h-1zm-21,1h1v4h-1zm4,0h1v4h-1zm14,1h2v1l-1,1h-1z"/><path d="M92,130h1v2h-1zm-20,6h1v2h-1zm41,1h2v1h-2zm7,3h2v1h-2zm-97,33h1l1,1v1h-1l-1-1zm136,3h13v1h-13zm14,1h1v4h-1zm-149,66h1v2h-1z"/></g><g style="fill:rgb(125,98,155);fill-rule:evenodd;stroke:rgb(125,98,155);stroke-width:0.1;" id="l8"><path d="M45,51h1v2h-1zm121,32h1v2h-1zm-19,22h2v1h-2zm19,14h1v1l-1,1h-1v-1zm-106,18h2v1h-2zm63,3h2v2h-1l-1-1zm-90,8h2v1h-2z"/></g><g style="fill:rgb(139,90,35);fill-rule:evenodd;stroke:rgb(139,90,35);stroke-width:0.1;" id="l9"><path d="M45,119h1v7h-1zm114,135h1v1l-2,2h-1v-1z"/></g><g style="fill:rgb(42,41,85);fill-rule:evenodd;stroke:rgb(42,41,85);stroke-width:0.1;" id="l10"><path d="M100,267h2v1h-2zm6,0h2v1h-2z"/></g><g style="fill:rgb(132,132,164);fill-rule:evenodd;stroke:rgb(132,132,164);stroke-width:0.1;" id="l11"><path d="M92,128h1v2h-1z"/></g></svg>